<svg xmlns="http://www.w3.org/2000/svg" width="150.849" height="46.031" viewBox="0 0 150.849 46.031">
    <defs>
        <style>.a,.b{fill:#fff;}.b{opacity:0.6;}</style>
    </defs>
    <g transform="translate(-30 -22.078)">
        <path class="a" d="M697.775,480.67c-6.717,0-10.892,4.9-10.892,10.988a10.687,10.687,0,0,0,10.732,11.03c6.77,0,8.877-3.643,8.877-3.643l-2.478-2.478c-1.1.983-2.65,2.3-6.385,2.3-3.787,0-6.39-3.156-6.39-5.125h17.108v-2.058C708.353,490.036,708.243,480.67,697.775,480.67Zm-6.615,9.5a6.468,6.468,0,0,1,6.47-5.735c4.978,0,6.545,3.35,6.545,5.735Z" transform="translate(-624.096 -444.839)"/>
        <path class="a" d="M1255.761,481.064a8.864,8.864,0,0,0-6.558,3.6v-3.11h-4.769v21.464h4.769V489.973c0-3.607,3.544-5.254,6.558-4.713Z" transform="translate(-1094.604 -445.172)"/>
        <path class="a" d="M1107.185,497.271c0,6.277-10.731,6.632-10.731-.181V484.223h-4.769s.033,9.253.033,12.83c0,10.422,11.213,11.488,15.468,5.524v3.11h4.769V484.223h-4.769Z" transform="translate(-965.702 -447.838)"/>
        <path class="a" d="M1328.107,480.4c-5.223,0-7.827,1.542-9.394,2.9l2.761,2.761c5.652-3.876,10.421-1.491,10.421,1.6v1.678h-7.75v.015h0c-3.949,0-7.15,2.933-7.15,6.551a6.207,6.207,0,0,0,4.139,5.943c6.569,2.134,9.962-1.211,10.766-2.324v2.936h4.769s.018,0,.018-14.607C1336.682,482.886,1332.5,480.4,1328.107,480.4Zm-1.639,18.451c-2.6,0-4.688-1.226-4.688-3.249,0-3.03,3.815-3.248,4.688-3.248,3.043,0,5.424.019,5.424.019s0,.55,0,2.336C1331.895,495.905,1329.907,498.855,1326.468,498.855Z" transform="translate(-1155.833 -444.615)"/>
        <path class="a" d="M844.417,484.5v-3.11h-4.769v21.464h4.769V489.806c0-6.277,10.731-6.631,10.731.181v12.867h4.769s-.033-9.253-.033-12.83C859.885,479.6,848.672,478.536,844.417,484.5Z" transform="translate(-753.013 -445.005)"/>
        <path class="a" d="M985.472,467.118h0V455.574h5.962v-3.586h-5.962v-5.954H980.7v5.954h-3.577v3.586H980.7v10.732a7.308,7.308,0,0,0,7.452,7.154,7.719,7.719,0,0,0,5.068-1.789L990.543,469C989.755,470.009,985.472,470.2,985.472,467.118Z" transform="translate(-869.025 -415.612)"/>
        <path class="a" d="M1194.069,645.691h-1.635v-6.357h-2.091v-1.362h5.817v1.362h-2.091Z" transform="translate(-1048.958 -577.581)"/>
        <path class="a" d="M1236.83,642.729v2.962H1235.2v-7.72h2.245a3.836,3.836,0,0,1,2.324.573,2.29,2.29,0,0,1,.378,2.951,2.473,2.473,0,0,1-1.059.833l2.266,3.362h-1.813l-1.838-2.962Zm0-1.331h.527a2.017,2.017,0,0,0,1.144-.258.927.927,0,0,0,.367-.814.844.844,0,0,0-.376-.781,2.271,2.271,0,0,0-1.167-.233h-.5Z" transform="translate(-1086.81 -577.581)"/>
        <path class="a" d="M1280.3,645.522l-.559-1.838h-2.81l-.559,1.838h-1.759l2.718-7.751h2l2.729,7.751Zm-.949-3.211q-.776-2.5-.872-2.825c-.064-.218-.112-.391-.139-.517q-.174.675-1,3.342Z" transform="translate(-1120.072 -577.412)"/>
        <path class="a" d="M1326.32,637.971h1.649l-2.619,7.72h-1.782l-2.612-7.72h1.649l1.449,4.594q.122.408.25.947t.161.754a13.478,13.478,0,0,1,.395-1.7Z" transform="translate(-1159.18 -577.581)"/>
        <path class="a" d="M1376.525,645.691h-4.436v-7.72h4.436v1.342h-2.8v1.695h2.608v1.342h-2.608v1.989h2.8Z" transform="translate(-1202.33 -577.581)"/>
        <path class="a" d="M1410.8,645.691v-7.72h1.632v6.367h3.125v1.352Z" transform="translate(-1234.997 -577.581)"/>
        <path class="a" d="M550.014,485.018l-8.436,14.771-8.4-14.771h-4.81l10.8,19.163,2.405,4.392,2.405-4.392,10.842-19.163Z" transform="translate(-490.329 -448.509)"/>
        <path class="b" d="M501.147,404.611a3.006,3.006,0,1,1-3.006-3.007A3.006,3.006,0,0,1,501.147,404.611Zm-24.273-12.026,6.092,10.824h6.093a9.16,9.16,0,0,1,18.163,0h6.093l6.093-10.824Z" transform="translate(-446.873 -370.507)"/>
    </g>
</svg>